<svg xmlns="http://www.w3.org/2000/svg" xmlns:xlink="http://www.w3.org/1999/xlink" version="1.1" x="0px" y="0px" viewBox="0 0 100 125" enable-background="new 0 0 100 100" xml:space="preserve"><path d="M94,5H6C5.448,5,5,5.448,5,6v88c0,0.553,0.448,1,1,1h88c0.553,0,1-0.447,1-1V6C95,5.448,94.553,5,94,5z M65.66,37.754  L77.906,50L65.66,62.246V37.754z M62.266,7L50,19.266L37.734,7H62.266z M37.754,34.34L50,22.094L62.246,34.34H37.754z M50,77.906  L37.754,65.66h24.492L50,77.906z M7,37.734L19.266,50L7,62.266V37.734z M34.34,93H7V65.66h27.34V93z M34.34,62.246L22.094,50  L34.34,37.754V62.246z M34.34,34.34H7V7h27.34V34.34z M37.734,93L50,80.734L62.266,93H37.734z M93,93H65.66V65.66H93V93z M93,62.266  L80.734,50L93,37.734V62.266z M93,34.34H65.66V7H93V34.34z"/><text x="0" y="115" fill="#000000" font-size="5px" font-weight="bold" font-family="'Helvetica Neue', Helvetica, Arial-Unicode, Arial, Sans-serif"></text><text x="0" y="120" fill="#000000" font-size="5px" font-weight="bold" font-family="'Helvetica Neue', Helvetica, Arial-Unicode, Arial, Sans-serif"></text></svg>